<svg xmlns="http://www.w3.org/2000/svg" viewBox="0 0 208 208" width="32" height="32">
<defs>
  <linearGradient id="cg" x1="0%" y1="100%" x2="100%" y2="0%">
    <stop offset="0%" stop-color="#9a7a2e"/>
    <stop offset="45%" stop-color="#c9a84c"/>
    <stop offset="100%" stop-color="#f0d878"/>
  </linearGradient>
  <linearGradient id="cf" x1="0%" y1="0%" x2="0%" y2="100%">
    <stop offset="0%" stop-color="#c9a84c" stop-opacity="0.22"/>
    <stop offset="100%" stop-color="#c9a84c" stop-opacity="0.0"/>
  </linearGradient>
</defs>
<rect width="208" height="208" rx="32" fill="#0d1018"/>
<rect x="38" y="38" width="132" height="132" rx="6" fill="rgba(201,168,76,.05)" stroke="rgba(201,168,76,.22)" stroke-width="3"/>
<polygon points="44,158 58,144 70,150 82,134 96,138 104,104 116,118 128,112 142,96 158,82 166,86 166,166 44,166" fill="url(#cf)"/>
<polyline points="44,158 58,144 70,150 82,134 96,138 104,104 116,118 128,112 142,96 158,82 166,86" fill="none" stroke="url(#cg)" stroke-width="6" stroke-linecap="round" stroke-linejoin="round"/>
<line x1="38" y1="38"   x2="104" y2="104" stroke="rgba(201,168,76,.5)" stroke-width="5" stroke-linecap="round"/>
<line x1="170" y1="38"  x2="104" y2="104" stroke="rgba(201,168,76,.5)" stroke-width="5" stroke-linecap="round"/>
<line x1="38" y1="170"  x2="104" y2="104" stroke="rgba(201,168,76,.5)" stroke-width="5" stroke-linecap="round"/>
<line x1="170" y1="170" x2="104" y2="104" stroke="rgba(201,168,76,.5)" stroke-width="5" stroke-linecap="round"/>
<circle cx="38" cy="38"   r="20" fill="#0d1018" stroke="#c9a84c" stroke-width="5.5"/>
<circle cx="170" cy="38"  r="20" fill="#0d1018" stroke="#c9a84c" stroke-width="5.5"/>
<circle cx="38" cy="170"  r="20" fill="#0d1018" stroke="#c9a84c" stroke-width="5.5"/>
<circle cx="170" cy="170" r="20" fill="#0d1018" stroke="#c9a84c" stroke-width="5.5"/>
<circle cx="38" cy="38"   r="9" fill="#c9a84c"/>
<circle cx="170" cy="38"  r="9" fill="#c9a84c"/>
<circle cx="38" cy="170"  r="9" fill="#c9a84c"/>
<circle cx="170" cy="170" r="9" fill="#c9a84c"/>
<circle cx="104" cy="104" r="14" fill="#0d1018" stroke="#c9a84c" stroke-width="5"/>
<line x1="92" y1="104" x2="116" y2="104" stroke="#c9a84c" stroke-width="3.5" stroke-linecap="round"/>
<line x1="104" y1="92" x2="104" y2="116" stroke="#c9a84c" stroke-width="3.5" stroke-linecap="round"/>
<circle cx="104" cy="104" r="5" fill="#e8c97a"/>
</svg>
