<svg xmlns="http://www.w3.org/2000/svg" viewBox="0 0 208 208" width="208" height="208">
<defs>
  <linearGradient id="cg" x1="0%" y1="100%" x2="100%" y2="0%">
    <stop offset="0%" stop-color="#9a7a2e"/>
    <stop offset="45%" stop-color="#c9a84c"/>
    <stop offset="100%" stop-color="#f0d878"/>
  </linearGradient>
  <linearGradient id="cf" x1="0%" y1="0%" x2="0%" y2="100%">
    <stop offset="0%" stop-color="#c9a84c" stop-opacity="0.22"/>
    <stop offset="100%" stop-color="#c9a84c" stop-opacity="0.0"/>
  </linearGradient>
  <linearGradient id="bg1" x1="0%" y1="0%" x2="100%" y2="100%">
    <stop offset="0%" stop-color="#141820"/>
    <stop offset="100%" stop-color="#0a0c12"/>
  </linearGradient>
  <linearGradient id="ng" x1="0%" y1="0%" x2="100%" y2="100%">
    <stop offset="0%" stop-color="#1e2330"/>
    <stop offset="100%" stop-color="#0d1018"/>
  </linearGradient>
</defs>
<rect width="208" height="208" rx="32" fill="url(#bg1)"/>
<rect width="208" height="208" rx="32" fill="none" stroke="rgba(201,168,76,.2)" stroke-width="1.2"/>
<rect x="38" y="38" width="132" height="132" rx="6" fill="rgba(201,168,76,.035)" stroke="rgba(201,168,76,.18)" stroke-width="1.2"/>
<line x1="38" y1="104" x2="170" y2="104" stroke="rgba(201,168,76,.06)" stroke-width=".8"/>
<line x1="104" y1="38" x2="104" y2="170" stroke="rgba(201,168,76,.06)" stroke-width=".8"/>
<polygon points="44,158 58,144 70,150 82,134 96,138 104,104 116,118 128,112 142,96 158,82 166,86 166,166 44,166" fill="url(#cf)"/>
<polyline points="44,158 58,144 70,150 82,134 96,138 104,104 116,118 128,112 142,96 158,82 166,86" fill="none" stroke="url(#cg)" stroke-width="2.4" stroke-linecap="round" stroke-linejoin="round"/>
<line x1="38" y1="38"   x2="104" y2="104" stroke="rgba(201,168,76,.38)" stroke-width="2" stroke-linecap="round"/>
<line x1="170" y1="38"  x2="104" y2="104" stroke="rgba(201,168,76,.38)" stroke-width="2" stroke-linecap="round"/>
<line x1="38" y1="170"  x2="104" y2="104" stroke="rgba(201,168,76,.38)" stroke-width="2" stroke-linecap="round"/>
<line x1="170" y1="170" x2="104" y2="104" stroke="rgba(201,168,76,.38)" stroke-width="2" stroke-linecap="round"/>
<circle cx="38" cy="38"   r="22" fill="rgba(201,168,76,.06)" stroke="rgba(201,168,76,.15)" stroke-width="1"/>
<circle cx="170" cy="38"  r="22" fill="rgba(201,168,76,.06)" stroke="rgba(201,168,76,.15)" stroke-width="1"/>
<circle cx="38" cy="170"  r="22" fill="rgba(201,168,76,.06)" stroke="rgba(201,168,76,.15)" stroke-width="1"/>
<circle cx="170" cy="170" r="22" fill="rgba(201,168,76,.06)" stroke="rgba(201,168,76,.15)" stroke-width="1"/>
<circle cx="38" cy="38"   r="16" fill="url(#ng)" stroke="#c9a84c" stroke-width="2"/>
<circle cx="170" cy="38"  r="16" fill="url(#ng)" stroke="#c9a84c" stroke-width="2"/>
<circle cx="38" cy="170"  r="16" fill="url(#ng)" stroke="#c9a84c" stroke-width="2"/>
<circle cx="170" cy="170" r="16" fill="url(#ng)" stroke="#c9a84c" stroke-width="2"/>
<circle cx="38" cy="38"   r="6.5" fill="#c9a84c"/>
<circle cx="170" cy="38"  r="6.5" fill="#c9a84c"/>
<circle cx="38" cy="170"  r="6.5" fill="#c9a84c"/>
<circle cx="170" cy="170" r="6.5" fill="#c9a84c"/>
<circle cx="104" cy="104" r="17" fill="rgba(201,168,76,.06)" stroke="rgba(201,168,76,.2)" stroke-width="1"/>
<circle cx="104" cy="104" r="11" fill="url(#ng)" stroke="#c9a84c" stroke-width="1.8"/>
<line x1="96"  y1="104" x2="112" y2="104" stroke="#c9a84c" stroke-width="1.2" stroke-linecap="round"/>
<line x1="104" y1="96"  x2="104" y2="112" stroke="#c9a84c" stroke-width="1.2" stroke-linecap="round"/>
<circle cx="104" cy="104" r="3" fill="#e8c97a"/>
</svg>
